# xmcd
#
# Track frame offsets:
#	150
#	11680
#	22695
#	41197
#
# Disc length: 836 seconds
#
# Revision: 0
# Processed by: cddbd v1.5.1PL0 Copyright (c) Steve Scherf et al.
# Submitted via: dBpowerAMP V4.0
#
DISCID=24034204
DTITLE=Louisiana Radio - From Nothing to a broken heart
DYEAR=1900
DGENRE=Folk-Rock
TTITLE0=Soif (remix)
TTITLE1=The blind man
TTITLE2=(From nothing to a) Broken Heart (remix)
TTITLE3=Soif (full cd version)
EXTD=From nothing to a broken hheart\nartist: Louisiana radio\nbayou music (dutch group)
EXTT0=
EXTT1=
EXTT2=
EXTT3=
PLAYORDER=
